<svg id="placeholder_empty" xmlns="http://www.w3.org/2000/svg" xmlns:xlink="http://www.w3.org/1999/xlink" width="200" height="150" viewBox="0 0 200 150">
  <defs>
    <style>
      .cls-1 {
        fill: none;
      }

      .cls-2 {
        fill: #deeeff;
      }

      .cls-3 {
        fill: #fff;
      }

      .cls-10, .cls-12, .cls-13, .cls-17, .cls-18, .cls-19, .cls-20, .cls-21, .cls-22, .cls-23, .cls-24, .cls-3, .cls-4, .cls-5, .cls-6, .cls-7, .cls-8, .cls-9 {
        fill-rule: evenodd;
      }

      .cls-4 {
        fill: url(#linear-gradient);
      }

      .cls-5 {
        fill: url(#linear-gradient-2);
      }

      .cls-6 {
        fill: #c4dffd;
      }

      .cls-7 {
        fill: url(#linear-gradient-3);
      }

      .cls-8 {
        fill: #ecf5ff;
      }

      .cls-9 {
        fill: url(#linear-gradient-4);
      }

      .cls-10 {
        fill: #afcced;
      }

      .cls-11 {
        fill: #cbe3ff;
      }

      .cls-12 {
        fill: #afd5ff;
      }

      .cls-13, .cls-16 {
        fill: #d3e7ff;
      }

      .cls-14 {
        fill: #deedff;
        opacity: 0.5;
      }

      .cls-15 {
        fill: #98bdea;
      }

      .cls-17 {
        opacity: 0.49;
        fill: url(#linear-gradient-9);
      }

      .cls-18 {
        fill: #1e2c97;
      }

      .cls-19 {
        fill: #2e3eb9;
      }

      .cls-20 {
        fill: #ffc9b3;
      }

      .cls-21 {
        fill: #ffccb8;
      }

      .cls-22 {
        fill: #fbbd8e;
      }

      .cls-23 {
        fill: #2ac2a6;
      }

      .cls-24 {
        fill: #2e1679;
      }

      .cls-25 {
        filter: url(#形状_12_拷贝);
      }

      .cls-26 {
        filter: url(#形状_12);
      }

      .cls-27 {
        filter: url(#形状_11);
      }
    </style>
    <filter id="形状_11" x="134.945" y="95.86" width="19.254" height="9.961" filterUnits="userSpaceOnUse">
      <feOffset dx="-3" dy="2" input="SourceAlpha"/>
      <feGaussianBlur stdDeviation="1" result="blur"/>
      <feFlood flood-color="#b9d2de"/>
      <feComposite operator="in" in2="blur"/>
      <feComposite in="SourceGraphic"/>
    </filter>
    <filter id="形状_12" x="163.833" y="88.248" width="11.967" height="11.855" filterUnits="userSpaceOnUse">
      <feOffset dx="-2" dy="1" input="SourceAlpha"/>
      <feGaussianBlur stdDeviation="1" result="blur-2"/>
      <feFlood flood-color="#c2d6e1"/>
      <feComposite operator="in" in2="blur-2"/>
      <feComposite in="SourceGraphic"/>
    </filter>
    <filter id="形状_12_拷贝" x="48.891" y="98.4" width="7.582" height="7.554" filterUnits="userSpaceOnUse">
      <feOffset dx="-1" dy="1" input="SourceAlpha"/>
      <feGaussianBlur stdDeviation="0.5" result="blur-3"/>
      <feFlood flood-color="#c5deeb"/>
      <feComposite operator="in" in2="blur-3"/>
      <feComposite in="SourceGraphic"/>
    </filter>
    <linearGradient id="linear-gradient" x1="0.913" x2="0.034" gradientUnits="objectBoundingBox">
      <stop offset="0" stop-color="#a5c5ea"/>
      <stop offset="1" stop-color="#deeeff"/>
    </linearGradient>
    <linearGradient id="linear-gradient-2" x1="0.5" x2="0.5" y2="1" gradientUnits="objectBoundingBox">
      <stop offset="0" stop-color="#7bb5f5"/>
      <stop offset="0.54" stop-color="#d3e7ff"/>
      <stop offset="1" stop-color="#5ea4f0"/>
    </linearGradient>
    <linearGradient id="linear-gradient-3" x1="1" y1="1" x2="1" y2="0.035" gradientUnits="objectBoundingBox">
      <stop offset="0" stop-color="#84baf6"/>
      <stop offset="1" stop-color="#fefeff"/>
    </linearGradient>
    <linearGradient id="linear-gradient-4" x1="0.469" y1="0.93" x2="0.474" y2="0.033" gradientUnits="objectBoundingBox">
      <stop offset="0" stop-color="#cde4ff"/>
      <stop offset="0.04" stop-color="#cde4ff"/>
      <stop offset="0.23" stop-color="#fff"/>
      <stop offset="0.666" stop-color="#edf5ff"/>
      <stop offset="0.87" stop-color="#e4f1ff"/>
      <stop offset="1" stop-color="#77b3f5"/>
    </linearGradient>
    <linearGradient id="linear-gradient-9" x1="0.913" x2="-0.194" gradientUnits="objectBoundingBox">
      <stop offset="0" stop-color="#6c9dd1"/>
      <stop offset="1" stop-color="#fff" stop-opacity="0.161"/>
    </linearGradient>
  </defs>
  <rect id="矩形_222" data-name="矩形 222" class="cls-1" width="200" height="150"/>
  <ellipse id="椭圆bg" class="cls-2" cx="100" cy="35" rx="100" ry="35" transform="translate(0 70)"/>
  <g class="cls-27" transform="matrix(1, 0, 0, 1, 0, 0)">
    <path id="形状_11-2" data-name="形状 11" class="cls-3" d="M281.049,153s-4.448,2.768-4.071,3.562,9.023.188,10.178,0,3.053-3.053,3.053-3.053Z" transform="translate(-136.01 -56.14)"/>
  </g>
  <g class="cls-26" transform="matrix(1, 0, 0, 1, 0, 0)">
    <path id="形状_12-2" data-name="形状 12" class="cls-3" d="M331.879,140h3.053a4.369,4.369,0,0,0,2.036,4.58c2.784,2.036-3.053,1.018-3.053,1.018a5.6,5.6,0,0,1-2.036-5.6Z" transform="translate(-162.92 -49.75)"/>
  </g>
  <g class="cls-25" transform="matrix(1, 0, 0, 1, 0, 0)">
    <path id="形状_12_拷贝-2" data-name="形状 12 拷贝" class="cls-3" d="M101.077,157h2.346a3.421,3.421,0,0,0,1.562,3.562c2.137,1.588-2.346.794-2.346.794A4.4,4.4,0,0,1,101.077,157Z" transform="translate(-49.59 -58.1)"/>
  </g>
  <g id="组_2" data-name="组 2" transform="translate(118.262 62.691)">
    <path id="形状_10" data-name="形状 10" class="cls-4" d="M72.111,131.666H42.4S38.638,130.408,38,128H63.981Z" transform="translate(-38 -107.597)"/>
    <path id="形状_14" data-name="形状 14" class="cls-5" d="M68.391,50S66,50.276,66,52.391a1.994,1.994,0,0,0,2.072,2.072h4.144V50Z" transform="translate(-61.537 -42.03)"/>
    <path id="形状_13" data-name="形状 13" class="cls-6" d="M80,76v.478h1.913V76Z" transform="translate(-73.305 -63.886)"/>
    <path id="矩形_7_拷贝_3" data-name="矩形 7 拷贝 3" class="cls-7" d="M85.767,63.983a6.376,6.376,0,0,1-6.376-6.376V51.391A2.391,2.391,0,0,0,77,49H91.664V63.983Z" transform="translate(-70.784 -41.19)"/>
    <path id="圆角矩形_1" data-name="圆角矩形 1" class="cls-8" d="M110.478,75h6.535a.478.478,0,0,1,.478.478v.638a.478.478,0,0,1-.478.478h-6.535a.478.478,0,0,1-.478-.478v-.638a.478.478,0,0,1,.478-.478Zm0,3.029h6.535a.478.478,0,0,1,.478.478v.638a.478.478,0,0,1-.478.478h-6.535a.478.478,0,0,1-.478-.478v-.638a.478.478,0,0,1,.478-.478Z" transform="translate(-98.524 -63.045)"/>
    <path id="矩形_7_拷贝_2" data-name="矩形 7 拷贝 2" class="cls-9" d="M149.04,4.913V5.55h.478V19.1a6.376,6.376,0,0,1-6.376,6.376H128a6.057,6.057,0,0,0,6.057-6.057h0V4.913A1.913,1.913,0,0,1,135.97,3h14.983a1.913,1.913,0,0,0-1.913,1.913Z" transform="translate(-113.654 -2.522)"/>
    <path id="路径_760" data-name="路径 760" class="cls-10" d="M103.8,2.391V17.055a5.9,5.9,0,1,1-11.8,0V10.2h.478v6.854a5.419,5.419,0,1,0,10.839,0V2.391A2.391,2.391,0,0,1,105.708,0V.478A1.913,1.913,0,0,0,103.8,2.391Z" transform="translate(-83.393)"/>
    <path id="路径_761" data-name="路径 761" class="cls-10" d="M249.072,2.391V16.737A5.869,5.869,0,0,1,247,21.2v.638a6.376,6.376,0,0,0,2.55-5.1V2.391A1.913,1.913,0,0,1,251.463.478V0a2.391,2.391,0,0,0-2.391,2.391Z" transform="translate(-213.686)"/>
    <rect id="矩形_10" data-name="矩形 10" class="cls-11" width="16" height="0.5" transform="translate(22.238 -0.041)"/>
    <path id="椭圆_6" data-name="椭圆 6" class="cls-10" d="M67.391,49.478a1.913,1.913,0,1,0,0,3.825v.478a2.391,2.391,0,1,1,2.391-2.391H69.3a1.913,1.913,0,0,0-1.909-1.912Z" transform="translate(-60.696 -41.19)"/>
    <path id="矩形_9" data-name="矩形 9" class="cls-12" d="M171.159,29h1.594a.16.16,0,0,1,0,.319h-1.594a.16.16,0,1,1,0-.319Zm2.869,0h1.594a.16.16,0,1,1,0,.319h-1.594a.16.16,0,1,1,0-.319Zm2.869,0h1.594a.16.16,0,1,1,0,.319H176.9a.16.16,0,1,1,0-.319Zm2.869,0h1.594a.16.16,0,0,1,0,.319h-1.594a.16.16,0,1,1,0-.319Zm2.869,0h1.594a.16.16,0,1,1,0,.319h-1.594a.16.16,0,1,1,0-.319Z" transform="translate(-149.8 -24.378)"/>
    <path id="矩形_8_拷贝" data-name="矩形 8 拷贝" class="cls-13" d="M187.638,54.507h7.492a.638.638,0,0,1,.638.638v.638a.638.638,0,0,1-.638.638h-7.492a.638.638,0,0,1-.638-.638v-.638A.638.638,0,0,1,187.638,54.507Zm0-3.507h7.492a.638.638,0,0,1,.638.638v.638a.638.638,0,0,1-.638.638h-7.492a.638.638,0,0,1-.638-.638v-.638A.638.638,0,0,1,187.638,51Z" transform="translate(-163.25 -42.871)"/>
    <rect id="矩形_8_拷贝_2" data-name="矩形 8 拷贝 2" class="cls-14" width="9" height="2" rx="1" transform="translate(23.738 15.309)"/>
  </g>
  <g id="组_2-2" data-name="组 2" transform="translate(19.338 19)">
    <path id="形状_10-2" data-name="形状 10" class="cls-4" d="M146.906,139.7H52.031S40.036,135.69,38,128h82.952Z" transform="translate(-38 -62.86)"/>
    <path id="形状_14-2" data-name="形状 14" class="cls-5" d="M73.634,50S66,50.88,66,57.634s6.616,6.616,6.616,6.616H85.847V50Z" transform="translate(-51.751 -24.555)"/>
    <path id="形状_13-2" data-name="形状 13" class="cls-6" d="M80,76v1.527h6.107V76Z" transform="translate(-58.626 -37.323)"/>
    <path id="矩形_7_拷贝_3-2" data-name="矩形 7 拷贝 3" class="cls-7" d="M104.99,96.837A20.356,20.356,0,0,1,84.634,76.481V56.634A7.634,7.634,0,0,0,77,49h46.819V96.837Z" transform="translate(-57.153 -24.064)"/>
    <path id="圆角矩形_1-2" data-name="圆角矩形 1" class="cls-8" d="M111.527,75h20.865a1.527,1.527,0,0,1,1.527,1.527v2.036a1.527,1.527,0,0,1-1.527,1.527H111.527A1.527,1.527,0,0,1,110,78.562V76.527A1.527,1.527,0,0,1,111.527,75Zm0,9.669h20.865a1.527,1.527,0,0,1,1.527,1.527v2.036a1.527,1.527,0,0,1-1.527,1.527H111.527A1.527,1.527,0,0,1,110,88.232V86.2a1.527,1.527,0,0,1,1.527-1.527Z" transform="translate(-73.359 -36.832)"/>
    <path id="矩形_7_拷贝_2-2" data-name="矩形 7 拷贝 2" class="cls-9" d="M195.176,9.107v2.036H196.7V54.4a20.356,20.356,0,0,1-20.356,20.356H128a19.338,19.338,0,0,0,19.338-19.338h0V9.107A6.107,6.107,0,0,1,153.445,3h47.837a6.107,6.107,0,0,0-6.107,6.107Z" transform="translate(-82.198 -1.473)"/>
    <path id="路径_760-2" data-name="路径 760" class="cls-10" d="M129.659,7.634V54.453a18.83,18.83,0,1,1-37.66,0V32.57h1.527V54.453a17.3,17.3,0,1,0,34.606,0V7.634A7.634,7.634,0,0,1,135.766,0V1.527a6.107,6.107,0,0,0-6.107,6.107Z" transform="translate(-64.519)"/>
    <path id="路径_761-2" data-name="路径 761" class="cls-10" d="M253.616,7.634v45.8A18.738,18.738,0,0,1,247,67.684V69.72a20.356,20.356,0,0,0,8.143-16.285V7.634a6.107,6.107,0,0,1,6.107-6.107V0a7.634,7.634,0,0,0-7.634,7.634Z" transform="translate(-140.639)"/>
    <rect id="矩形_10-2" data-name="矩形 10" class="cls-11" width="49.5" height="1.6" transform="translate(71.162)"/>
    <path id="椭圆_6-2" data-name="椭圆 6" class="cls-10" d="M72.634,50.527a6.107,6.107,0,1,0,0,12.214v1.527a7.634,7.634,0,1,1,7.634-7.634H78.74a6.107,6.107,0,0,0-6.106-6.107Z" transform="translate(-51.26 -24.064)"/>
    <path id="矩形_9-2" data-name="矩形 9" class="cls-12" d="M171.509,29H176.6a.509.509,0,1,1,0,1.018h-5.089a.509.509,0,1,1,0-1.018Zm9.16,0h5.089a.509.509,0,1,1,0,1.018h-5.089a.509.509,0,1,1,0-1.018Zm9.16,0h5.089a.509.509,0,1,1,0,1.018h-5.089a.509.509,0,1,1,0-1.018Zm9.16,0h5.089a.509.509,0,1,1,0,1.018H198.99a.509.509,0,0,1,0-1.018Zm9.16,0h5.089a.509.509,0,1,1,0,1.018H208.15a.509.509,0,1,1,0-1.018Z" transform="translate(-103.316 -14.242)"/>
    <path id="矩形_8_拷贝-2" data-name="矩形 8 拷贝" class="cls-13" d="M189.036,62.2h23.919a2.036,2.036,0,0,1,2.036,2.036v2.036a2.036,2.036,0,0,1-2.036,2.036H189.036A2.036,2.036,0,0,1,187,66.267V64.232A2.036,2.036,0,0,1,189.036,62.2Zm0-11.2h23.919a2.036,2.036,0,0,1,2.036,2.036v2.036a2.036,2.036,0,0,1-2.036,2.036H189.036A2.036,2.036,0,0,1,187,55.071V53.036A2.036,2.036,0,0,1,189.036,51Z" transform="translate(-111.173 -25.046)"/>
    <rect id="矩形_8_拷贝_2-2" data-name="矩形 8 拷贝 2" class="cls-14" width="28" height="6" rx="3" transform="translate(75.662 48)"/>
  </g>
  <g id="man" transform="translate(66.359 67.793)">
    <rect id="矩形_4_拷贝_4" data-name="矩形 4 拷贝 4" class="cls-15" width="28" height="6" rx="3" transform="translate(36.641 4.207)"/>
    <rect id="矩形_4_拷贝_3" data-name="矩形 4 拷贝 3" class="cls-16" width="28" height="6" rx="3" transform="translate(37.641 5.207)"/>
    <path id="形状_9" data-name="形状 9" class="cls-17" d="M187.446,195.925a14.63,14.63,0,0,1-7.369-1.735c-6.071-.468-23.6-1.221-37.959-1.725-6.193-.219-10.422.575-10.906.407-1.613-.565-.606-4.662,1.018-4.071,5.333,1.934,7.262-1.17,8.143-2.545,1.786-2.784,2.036,2.891,7.125,2.545,2.865-.2,26.377.361,31.552.483,1.527-1.491,4.728-2.519,8.4-2.519,5.2,0,9.415,2.036,9.415,4.58S192.647,195.925,187.446,195.925Z" transform="translate(-130.395 -139.883)"/>
    <path id="形状_7" data-name="形状 7" class="cls-18" d="M231,194s1.674,2.26,2.545,2.545a1.527,1.527,0,0,0,1.527-.509s-3.125-3.328-3.562-3.053A1.527,1.527,0,0,0,231,194Z" transform="translate(-179.801 -143.559)"/>
    <path id="形状_8" data-name="形状 8" class="cls-18" d="M246,192.5s2.036,2.641,2.545,2.545,1.145-.509,1.018-1.018a6.547,6.547,0,0,0-2.545-2.036C246.586,191.946,245.929,192.083,246,192.5Z" transform="translate(-187.163 -143.075)"/>
    <path id="pants" class="cls-19" d="M234,150s.148,24.229.509,24.427,1.14.885,1.527.509S238.387,155.6,239.6,155.6s2.651,16.677,2.545,17.3,1.221,1.6,1.527,1.018S245.4,152.091,244.69,150Z" transform="translate(-181.275 -122.457)"/>
    <path id="形状_6" data-name="形状 6" class="cls-20" d="M221.125,121.931l-2.036,1.527-3.562-5.6s-1.852-.387-2.036-1.018-.621.707-.509,1.527,1.018.193,1.527,1.018,3.562,6.107,3.562,6.107a2.782,2.782,0,0,0,2.545,0,9.415,9.415,0,0,0,2.036-2.036Z" transform="translate(-170.944 -106.093)"/>
    <path id="形状_6_拷贝" data-name="形状 6 拷贝" class="cls-21" d="M253.539,121.979l1.715-.8L253,116.859a3.237,3.237,0,0,0,1.018-1.018c.178-.458,0,.148.509.509s-.366.4,0,1.018,2.427,3.863,2.427,3.863a2,2,0,0,1-.891,1.664,7.033,7.033,0,0,1-2.036.621Z" transform="translate(-190.605 -105.601)"/>
    <path id="heat" class="cls-22" d="M239.107,107.827v.809a1.527,1.527,0,1,1-3.053,0v-.809a4.071,4.071,0,0,1-2.5-3.267h-.041a.509.509,0,0,1,0-1.018h.036a4.071,4.071,0,1,1,5.562,4.275Z" transform="translate(-180.784 -97.888)"/>
    <path id="body" class="cls-23" d="M231.06,124.051s-1.527,11.44-1.018,11.7c.616.336,9.959,1.527,11.7-.509l-1.018-10.687s3.272.707,2.545-1.527a6.775,6.775,0,0,0-2.545-3.562c-.774-.7-2.036-1.858-3.053-1.527a9.235,9.235,0,0,1-4.58,0c-.285-.229-5.873,2.656-6.107,4.58a3.574,3.574,0,0,0,2.036,3.053C229.6,125.633,231.06,124.051,231.06,124.051Z" transform="translate(-177.826 -106.686)"/>
    <path id="hair" class="cls-24" d="M232,97.976a14.759,14.759,0,0,0,4.071,1.527c1.684.275.188,1.349.509,2.545.249.926,3.247,1.2,1.527,2.545-.865.677,1.237,2.229,2.036,1.527a6.43,6.43,0,0,0,2.611-7.277c-.458-1.969-3.053-3.267-5.155-2.9C235.14,96.363,232.509,98.251,232,97.976Z" transform="translate(-180.292 -95.878)"/>
  </g>
</svg>
